<?xml version="1.0" standalone="no"?>
<!DOCTYPE svg PUBLIC "-//W3C//DTD SVG 20010904//EN"
 "http://www.w3.org/TR/2001/REC-SVG-20010904/DTD/svg10.dtd">
<svg version="1.0" xmlns="http://www.w3.org/2000/svg"
 width="3588.000000pt" height="3379.000000pt" viewBox="0 0 3588.000000 3379.000000"
 preserveAspectRatio="xMidYMid meet">

<g transform="translate(0.000000,3379.000000) scale(0.100000,-0.100000)"
fill="#000000" stroke="none">
<path d="M18220 31289 c-40 -16 -87 -56 -112 -96 l-23 -38 -5 -1325 -5 -1325
-63 -5 c-54 -4 -67 -9 -88 -33 l-24 -28 0 -455 0 -454 -170 0 -170 0 0 -125 0
-125 745 0 745 0 0 125 0 125 -170 0 -170 0 0 445 c0 479 -1 487 -52 513 -12
6 -45 13 -73 14 l-50 3 -5 1320 -5 1320 -27 45 c-44 75 -109 111 -202 109 -28
0 -62 -5 -76 -10z"/>
<path d="M26450 30904 c-83 -58 -438 -233 -554 -273 -177 -62 -388 -108 -926
-201 -555 -96 -836 -159 -1099 -246 -511 -170 -839 -473 -995 -922 -86 -246
-88 -420 -10 -655 35 -104 162 -359 269 -537 158 -263 205 -373 224 -530 10
-76 2 -199 -15 -243 -6 -16 22 -17 430 -17 l436 0 0 -2089 c0 -1981 1 -2090
18 -2095 9 -3 89 -24 177 -47 154 -41 166 -43 310 -43 119 0 172 5 255 23 263
58 688 218 1246 471 420 191 730 311 1018 395 316 91 625 137 790 118 79 -10
79 -10 55 9 -238 190 -416 402 -543 648 -79 153 -123 280 -166 470 -132 596
-441 1126 -797 1368 -141 96 -269 141 -420 149 -128 7 -170 -1 -453 -87 -384
-117 -634 -186 -949 -260 l-205 -49 -57 50 c-156 135 -219 268 -173 365 19 41
88 106 141 132 63 33 203 79 304 100 183 40 326 54 604 58 306 4 443 15 630
49 397 73 722 226 952 448 110 106 154 162 222 281 98 170 132 308 131 531 0
354 -101 686 -351 1160 -265 504 -378 774 -441 1063 -28 125 -30 344 -5 410 9
23 15 42 14 41 -1 0 -31 -21 -67 -45z"/>
<path d="M9535 29455 c-55 -7 -156 -25 -225 -39 -69 -14 -259 -43 -422 -66
-163 -22 -338 -49 -390 -59 -388 -81 -635 -223 -697 -401 -7 -19 -18 -107 -26
-195 -32 -354 -130 -540 -410 -773 -172 -144 -197 -167 -250 -237 -168 -219
-213 -513 -111 -725 13 -27 52 -95 86 -150 110 -177 146 -298 171 -563 15
-166 6 -717 -15 -881 -8 -65 -20 -160 -26 -210 l-12 -92 -55 -29 c-158 -83
-233 -216 -233 -419 -1 -244 -71 -500 -148 -540 -60 -32 -111 -110 -137 -214
-23 -91 -35 -311 -28 -512 6 -186 6 -186 -21 -254 -40 -99 -64 -203 -77 -329
-15 -156 -32 -224 -79 -317 -58 -115 -70 -177 -70 -365 0 -88 -7 -212 -14
-275 -21 -172 -209 -1029 -322 -1470 -44 -170 -48 -195 -48 -306 l-1 -121 43
-84 c46 -92 62 -160 62 -279 0 -91 20 -140 78 -192 39 -36 93 -58 140 -58 21
0 22 3 17 34 -12 63 43 306 110 481 92 244 310 603 493 811 112 129 277 253
316 238 8 -3 24 -1 35 6 16 8 21 8 21 -1 0 -15 136 -6 242 16 158 34 569 186
793 295 207 101 459 272 685 466 204 175 295 231 430 265 70 18 95 30 164 83
127 96 212 185 227 237 29 106 2 316 -88 669 -31 122 -48 220 -59 325 -8 83
-23 195 -34 250 -26 136 -43 355 -35 440 20 222 101 431 309 803 l108 192
-103 132 c-184 237 -841 1054 -945 1177 -5 6 -44 -30 -44 -41 0 -4 87 -142
193 -305 106 -164 202 -311 213 -328 l19 -30 -31 26 c-17 14 -82 70 -143 125
l-112 99 6 40 c4 22 9 47 11 57 4 12 -13 25 -68 51 -390 188 -676 571 -754
1007 -42 238 -7 548 86 765 l20 46 48 -49 c324 -333 1105 -497 1814 -381 260
42 503 122 664 217 l51 30 11 -37 c46 -152 58 -419 28 -591 -54 -301 -225
-611 -439 -794 l-55 -47 -31 -127 c-60 -250 -88 -505 -77 -692 4 -65 2 -118
-4 -140 -14 -45 -14 -191 -1 -255 6 -27 38 -131 71 -230 32 -99 65 -204 72
-234 l13 -54 63 -13 c172 -35 309 -149 300 -251 -3 -35 -5 -38 -33 -37 -16 0
-75 10 -130 22 -133 28 -334 44 -467 36 l-108 -7 0 -59 c0 -38 4 -60 13 -63 6
-2 49 -6 93 -8 l81 -5 -8 37 c-15 64 -10 65 31 9 36 -51 46 -58 107 -78 129
-42 214 -99 274 -186 62 -90 85 -214 57 -307 -9 -29 -19 -42 -41 -49 -16 -6
-26 -16 -23 -23 13 -35 17 -106 7 -143 -14 -52 -52 -82 -102 -82 -49 0 -67 25
-79 110 -5 34 -16 71 -26 81 -40 44 -110 4 -124 -71 -11 -59 16 -218 70 -410
120 -431 133 -504 128 -702 -3 -119 -7 -150 -24 -188 -37 -79 -995 -1045
-1359 -1369 -443 -396 -976 -794 -1442 -1080 -57 -35 -103 -66 -103 -71 0 -4
14 -25 31 -46 41 -50 59 -94 59 -141 0 -26 -33 -110 -110 -279 -124 -275 -175
-414 -225 -617 -69 -284 -95 -541 -95 -952 0 -424 28 -813 115 -1600 30 -269
59 -551 64 -625 17 -217 30 -656 36 -1235 11 -1027 33 -1289 189 -2170 139
-784 177 -1093 206 -1678 5 -104 11 -191 12 -193 2 -1 57 11 123 27 205 50
318 63 560 63 435 2 797 -63 1521 -269 479 -137 533 -148 714 -149 128 0 158
3 255 28 139 36 207 63 480 191 344 160 461 197 646 200 64 1 122 6 129 10 21
13 97 183 125 280 41 141 56 270 56 466 0 201 -17 366 -67 646 -160 912 -228
1399 -288 2068 -65 719 -81 1189 -70 2030 18 1443 14 1685 -37 2019 -10 71
-18 130 -17 132 2 1 323 110 713 242 963 326 2350 795 2352 796 2 2 450 1851
448 1853 -1 2 -3131 -845 -3257 -882 l-58 -16 -21 -72 c-81 -272 -305 -1043
-344 -1182 -15 -55 -29 -102 -30 -103 -2 -2 -31 51 -65 118 -34 67 -130 224
-212 348 -233 353 -309 528 -327 752 -16 196 7 266 181 556 185 307 250 447
279 597 18 95 12 253 -16 393 -52 267 -59 350 -59 778 l-1 399 -52 22 c-126
56 -239 158 -290 263 -22 45 -27 70 -27 127 0 38 6 80 12 92 7 12 44 48 83 79
l71 56 31 -23 c18 -13 64 -45 102 -72 l70 -48 8 178 c4 98 6 320 4 493 -4 394
16 328 -213 719 l-78 134 58 54 c31 29 118 97 193 150 180 127 262 199 318
277 91 129 142 293 152 493 8 155 -6 271 -67 588 -88 452 -98 597 -55 827 25
135 42 200 135 503 130 427 138 661 30 892 -92 196 -238 356 -580 635 -336
273 -556 421 -840 563 -202 102 -365 161 -554 201 -203 43 -470 55 -671 29z
m4320 -9580 c11 -6 38 -15 60 -19 76 -15 135 -60 135 -104 0 -31 -51 -78 -101
-93 -27 -9 -45 -23 -59 -46 -22 -38 -75 -65 -111 -56 -33 8 -69 42 -85 80 -8
17 -27 40 -43 49 -17 10 -36 31 -42 47 -10 24 -9 32 8 55 11 14 38 35 60 47
23 11 50 28 60 37 33 29 75 30 118 3z m353 -510 c23 -9 42 -23 42 -31 0 -22
-41 -42 -105 -52 -51 -8 -62 -7 -85 9 -27 21 -110 39 -174 39 -37 0 -39 1 -24
16 45 45 255 56 346 19z m-1510 -169 c63 -33 29 -68 -83 -86 -100 -16 -236 2
-270 37 -15 14 -15 18 -2 31 44 43 284 55 355 18z m767 -46 c-3 -5 -12 -10
-20 -10 -7 0 -21 -7 -30 -16 -15 -15 -15 -18 1 -35 9 -11 24 -19 33 -19 13 -1
12 -3 -3 -12 -26 -15 -181 -5 -229 16 -89 37 1 85 161 86 60 0 91 -4 87 -10z
m-499 -51 c60 -11 111 -35 99 -47 -4 -4 -57 -7 -118 -7 -80 -1 -128 -6 -169
-19 -54 -17 -59 -18 -83 -2 -14 9 -25 20 -25 25 0 44 170 73 296 50z m1419
-20 c37 -18 38 -40 3 -57 -16 -7 -28 -20 -28 -28 0 -30 -69 -46 -200 -47 -98
0 -132 3 -157 17 -41 20 -42 43 -4 59 27 11 31 16 31 36 0 43 276 59 355 20z
m-1847 -40 c27 -5 59 -19 70 -30 16 -14 36 -19 77 -19 30 0 55 -4 55 -9 0 -15
68 -33 149 -40 l76 -6 -27 -19 c-43 -29 -92 -35 -263 -36 l-160 -1 50 -17 c62
-21 69 -44 23 -69 -49 -26 -245 -30 -313 -6 -109 39 -31 91 140 94 80 1 85 2
49 10 -22 5 -50 18 -62 29 -12 11 -34 20 -49 20 -37 0 -94 17 -118 34 -19 14
-19 15 -1 35 10 11 37 24 60 30 57 13 186 13 244 0z m1823 -119 c121 -34 31
-98 -117 -85 l-74 7 43 22 c23 11 46 31 52 44 11 25 38 28 96 12z"/>
<path d="M21455 28809 c-104 -10 -223 -40 -343 -88 -167 -67 -273 -101 -415
-136 -301 -74 -602 -84 -830 -25 -40 10 -73 17 -74 16 -2 -2 8 -29 21 -62 30
-75 61 -218 77 -359 15 -123 18 -625 6 -777 l-8 -98 1454 0 1455 0 -4 63 c-2
34 -6 123 -8 197 -5 143 -19 233 -66 420 -35 138 -106 356 -126 388 -8 12 -58
59 -112 103 -198 164 -427 283 -646 333 -61 14 -251 37 -285 35 -9 -1 -52 -5
-96 -10z"/>
<path d="M10051 24453 c-61 -152 -109 -278 -107 -280 1 -2 54 21 117 51 125
59 257 104 332 113 26 3 50 10 53 14 5 8 -255 361 -275 373 -5 3 -59 -119
-120 -271z"/>
<path d="M18355 23826 c-280 -64 -494 -278 -576 -576 -30 -109 -33 -307 -7
-415 62 -256 221 -455 442 -555 58 -26 190 -60 235 -60 19 0 21 -7 23 -117 3
-110 4 -118 23 -118 19 0 20 8 23 115 l3 116 89 17 c155 29 287 102 397 221
254 271 294 702 95 1031 -48 80 -181 211 -262 258 -141 81 -341 116 -485 83z"/>
<path d="M12014 22358 c-54 -11 -116 -65 -148 -129 l-25 -51 79 -39 c85 -41
165 -111 176 -153 11 -44 22 -29 34 45 13 77 8 151 -16 260 -17 75 -27 81
-100 67z"/>
<path d="M16943 21965 c-3 -9 2 -24 11 -34 15 -16 1 -56 -205 -582 -121 -310
-222 -565 -223 -566 -1 -1 -155 135 -342 302 -186 168 -346 304 -354 302 -8
-1 -16 -9 -18 -17 -3 -19 703 -655 727 -655 11 0 74 149 240 573 123 315 229
571 234 569 6 -2 331 -356 723 -788 l713 -784 -807 -807 c-764 -765 -805 -808
-795 -831 11 -24 12 -24 224 -30 117 -4 291 -7 388 -7 97 0 192 -3 213 -6 l36
-6 -291 -232 c-161 -128 -300 -235 -310 -239 -21 -8 -22 -46 -1 -54 9 -3 136
-107 283 -230 146 -122 273 -222 281 -220 43 7 8 43 -240 251 -144 120 -260
222 -258 227 2 5 143 120 313 256 l310 246 310 -7 c171 -3 477 -9 682 -13
l372 -6 -367 -294 c-217 -173 -367 -300 -367 -310 0 -20 544 -444 565 -440 45
8 11 42 -234 231 -140 108 -258 200 -261 205 -3 5 162 143 367 307 l372 297
392 -7 c339 -5 393 -4 404 9 6 8 10 19 8 25 -1 5 -343 384 -758 841 -415 458
-756 835 -758 838 -1 3 357 365 795 803 l798 798 281 -648 c227 -524 284 -647
299 -647 11 0 21 9 25 22 3 11 175 173 383 359 235 210 377 344 375 353 -2 9
-10 17 -18 18 -8 2 -184 -148 -390 -333 -354 -317 -375 -334 -385 -313 -5 13
-127 293 -270 623 l-261 599 -37 13 c-30 10 -376 18 -1567 34 -841 11 -1545
20 -1565 20 -23 0 -38 -6 -42 -15z"/>
<path d="M15211 16164 c-122 -33 -201 -139 -201 -271 l0 -43 531 0 530 0 -6
-52 c-16 -139 -1233 -11523 -1232 -11525 6 -5 519 -24 524 -19 4 4 76 680 159
1504 84 823 153 1498 153 1500 2 7 2231 1 2235 -7 4 -5 -3 -380 -14 -833 -11
-452 -20 -829 -20 -835 0 -10 53 -13 234 -13 l233 0 6 173 c4 94 14 442 22
772 9 330 18 632 21 670 l5 70 1347 -3 c740 -1 1347 -4 1349 -6 4 -3 303
-2946 303 -2978 0 -20 3 -20 168 -13 92 4 212 10 267 14 l100 6 -617 5755
c-339 3165 -617 5770 -617 5788 l-1 32 571 0 572 0 -7 64 c-3 36 -13 81 -21
100 -23 55 -79 111 -138 137 l-52 24 -3175 2 c-2741 2 -3182 0 -3229 -13z
m2739 -449 l0 -135 75 0 75 0 0 -112 c0 -62 -5 -288 -10 -503 -6 -214 -44
-1846 -85 -3625 -41 -1779 -77 -3322 -81 -3428 l-6 -192 -1099 0 -1099 0 0 26
c0 27 805 7987 815 8062 l6 42 705 0 704 0 0 -135z m2270 125 c0 -5 185 -1830
410 -4054 226 -2225 410 -4050 410 -4055 0 -8 -394 -11 -1320 -11 -726 0
-1320 2 -1320 4 0 23 202 7145 210 7390 5 181 10 360 10 398 l0 68 100 0 100
0 0 128 c0 71 3 132 7 135 11 11 1393 8 1393 -3z"/>
<path d="M23549 11127 c-188 -53 -289 -242 -231 -434 24 -78 173 -382 256
-522 57 -95 64 -111 46 -111 -7 0 -7 -6 0 -19 43 -81 220 -688 220 -753 0 -13
-16 24 -36 82 -96 286 -165 400 -270 449 -145 69 -309 40 -412 -73 -69 -75
-87 -124 -87 -236 0 -89 3 -99 34 -158 41 -76 80 -111 172 -157 86 -44 320
-121 495 -165 129 -32 132 -33 138 -62 14 -73 1 -301 -30 -493 -33 -209 -100
-426 -201 -655 -33 -74 -62 -141 -65 -149 -2 -8 -37 36 -82 105 -180 273 -336
457 -424 497 -37 17 -66 22 -137 22 -78 0 -97 -4 -147 -28 -72 -35 -134 -97
-167 -167 -22 -47 -26 -69 -26 -150 0 -80 4 -102 24 -140 57 -110 123 -163
229 -186 91 -19 364 -28 547 -16 83 5 151 8 153 6 2 -1 -15 -62 -37 -136 -81
-265 -123 -516 -142 -838 -10 -177 -7 -427 7 -570 5 -54 4 -51 -84 126 -185
374 -252 443 -437 452 -74 3 -100 0 -146 -17 -79 -30 -141 -88 -181 -169 -30
-60 -33 -75 -33 -157 0 -71 5 -100 22 -137 27 -58 95 -134 144 -159 90 -46
354 -101 617 -129 102 -11 113 -15 116 -34 3 -11 12 -81 22 -153 9 -73 18
-133 20 -133 2 0 19 8 39 17 30 14 35 21 30 43 -23 113 -55 459 -58 630 l-2
124 145 18 c439 54 613 108 692 213 55 73 71 130 66 234 -5 101 -34 166 -104
231 -77 71 -115 85 -234 85 -91 0 -112 -3 -154 -24 -61 -30 -106 -75 -162
-162 -47 -72 -185 -344 -225 -443 -32 -78 -34 -59 -19 149 26 381 98 717 209
978 21 51 52 122 67 159 l29 67 270 -6 c410 -9 508 9 606 106 77 77 102 145
97 261 -5 135 -62 227 -180 291 -59 32 -69 34 -158 34 -180 0 -233 -45 -526
-450 -20 -27 -33 -41 -29 -30 38 112 97 402 109 540 4 39 6 151 6 250 1 163
-4 229 -25 391 l-7 51 162 87 c319 171 455 270 508 370 24 46 27 62 27 151 0
84 -4 107 -23 147 -34 70 -93 130 -158 163 -54 27 -68 30 -159 30 -95 0 -103
-2 -164 -35 -80 -43 -133 -108 -161 -197 -21 -69 -54 -284 -67 -443 l-8 -95
-28 110 c-23 88 -120 386 -152 467 -4 11 -13 14 -23 10 -16 -6 -16 -4 -1 18
93 142 253 460 295 585 45 135 22 244 -70 343 -86 92 -228 133 -347 99z"/>
<path d="M3579 6138 c-195 -235 -300 -391 -318 -471 -11 -49 -16 -58 -31 -54
-14 4 -25 -11 -54 -72 -51 -110 -74 -218 -57 -279 24 -90 80 -124 236 -141 74
-9 106 -18 180 -55 192 -95 393 -284 623 -587 l73 -96 62 33 c61 33 193 81
293 106 47 12 57 21 129 108 91 110 247 266 326 327 136 104 231 146 379 167
152 21 204 61 217 164 6 57 -14 146 -60 252 -28 63 -36 75 -54 72 -19 -3 -23
4 -34 58 -10 51 -26 81 -90 173 -76 109 -179 242 -266 343 l-43 49 27 -75 c24
-65 27 -90 27 -195 0 -84 -5 -140 -17 -185 -31 -113 -119 -275 -233 -430 -303
-411 -415 -594 -513 -845 -6 -16 -11 -10 -26 35 -50 154 -204 408 -451 748
-160 219 -221 321 -258 432 -56 170 -57 326 -2 461 13 32 23 59 22 59 -1 0
-40 -46 -87 -102z"/>
</g>
</svg>
